<svg width="218" height="62" viewBox="0 0 218 62" fill="none" xmlns="http://www.w3.org/2000/svg">
<path d="M0.157959 49.6415V6.97654H5.59945V11.291C7.84006 8.30815 12.0012 6.39062 16.109 6.39062C24.4846 6.39062 31.0464 13.2618 31.0464 22.0504C31.0464 30.8391 24.4846 37.7102 16.109 37.7102C12.0012 37.7102 7.84006 35.7394 5.59945 32.8099V49.6415H0.157959ZM15.3088 11.3442C9.4405 11.3442 5.17266 15.8185 5.17266 22.0504C5.17266 28.2824 9.4405 32.7566 15.3088 32.7566C21.177 32.7566 25.4449 28.2824 25.4449 22.0504C25.4449 15.8185 21.177 11.3442 15.3088 11.3442Z" fill="white"/>
<path d="M37.7653 37.1236V6.97584H43.2067V12.1425C44.7005 8.52051 48.4348 6.65625 51.529 6.65625C52.3826 6.65625 53.1295 6.70951 53.9297 6.92257H54.0364V12.5686L53.8763 12.5154C52.9694 12.1958 52.1692 12.036 51.1022 12.036C45.9808 12.036 43.2601 17.1494 43.2601 22.2095V37.1769H37.7653V37.1236Z" fill="white"/>
<path d="M72.9237 37.7102C64.5481 37.7102 57.9863 30.8391 57.9863 22.0504C57.9863 13.2618 64.5481 6.39062 72.9237 6.39062C77.0315 6.39062 81.1927 8.36141 83.4333 11.291V6.97654H88.8748V37.1243H83.3799V32.8099C81.1393 35.7927 76.9782 37.7102 72.9237 37.7102ZM73.6706 11.3442C67.8557 11.3442 63.4812 15.925 63.4812 22.0504C63.4812 28.1758 67.8557 32.7566 73.6706 32.7566C79.5389 32.7566 83.8067 28.2824 83.8067 22.0504C83.8067 15.8185 79.5922 11.3442 73.6706 11.3442Z" fill="white"/>
<path d="M174.925 37.1243V19.4405C174.925 14.3803 172.737 11.3975 169.056 11.3975C164.095 11.3975 160.894 15.6587 160.894 22.2102V37.1776H155.453V19.4405C155.453 14.3803 153.265 11.3975 149.691 11.3975C144.783 11.3975 141.475 15.7652 141.475 22.2102V37.1776H136.034V6.97654H141.475V11.2377C143.343 8.20162 146.65 6.39062 150.438 6.39062C154.759 6.39062 158.12 8.62774 159.72 12.5693C161.428 8.73427 165.215 6.39062 169.643 6.39062C176.152 6.39062 180.366 11.1844 180.366 18.6415V37.1243H174.925Z" fill="white"/>
<path d="M202.026 37.7102C193.65 37.7102 187.088 30.8391 187.088 22.0504C187.088 13.2618 193.65 6.39062 202.026 6.39062C206.134 6.39062 210.295 8.36141 212.535 11.291V6.97654H217.977V37.1243H212.535V32.8099C210.295 35.7927 206.134 37.7102 202.026 37.7102ZM202.826 11.3442C197.011 11.3442 192.637 15.925 192.637 22.0504C192.637 28.1758 197.011 32.7566 202.826 32.7566C208.694 32.7566 212.962 28.2824 212.962 22.0504C212.962 15.8185 208.694 11.3442 202.826 11.3442Z" fill="white"/>
<path d="M117.948 37.6581C124.457 35.421 129.151 29.2423 129.151 22.0515C129.151 16.5653 126.484 11.7182 122.323 8.7354C122.643 8.78866 123.016 8.84192 123.336 8.84192C125.79 8.84192 127.817 6.87113 127.817 4.42096C127.817 1.97079 125.79 0 123.336 0C120.882 0 118.855 1.97079 118.855 4.42096C118.855 5.48625 119.228 6.49828 119.922 7.29725C117.681 6.17869 115.121 5.53952 112.4 5.53952C103.171 5.53952 95.6487 12.9433 95.6487 22.1048C95.6487 31.1065 102.957 38.457 111.973 38.6701C107.599 40.5344 104.504 44.8488 104.504 49.8557C104.504 56.567 109.999 62 116.774 62C123.55 62 129.044 56.567 129.044 49.8557C129.151 43.4107 124.243 38.1907 117.948 37.6581ZM100.877 21.9983C100.877 15.6598 106.052 10.5464 112.453 10.5464C118.855 10.5464 124.03 15.7131 124.03 21.9983C124.03 28.2835 118.855 33.5034 112.453 33.5034C106.052 33.5034 100.877 28.3368 100.877 21.9983ZM116.881 56.8333C112.933 56.8333 109.733 53.6375 109.733 49.7491C109.733 45.8608 112.933 42.6649 116.881 42.6649C120.829 42.6649 124.03 45.8608 124.03 49.7491C124.03 53.6907 120.829 56.8333 116.881 56.8333Z" fill="white"/>
</svg>
