<?xml version="1.0" encoding="utf-8"?>
<!-- Generator: Adobe Illustrator 16.0.0, SVG Export Plug-In . SVG Version: 6.00 Build 0)  -->
<!DOCTYPE svg PUBLIC "-//W3C//DTD SVG 1.1//EN" "http://www.w3.org/Graphics/SVG/1.1/DTD/svg11.dtd">
<svg version="1.1" id="Layer_1" xmlns="http://www.w3.org/2000/svg" xmlns:xlink="http://www.w3.org/1999/xlink" x="0px" y="0px"
	 width="100.667px" height="69.757px" viewBox="0 0 100.667 69.757" enable-background="new 0 0 100.667 69.757"
	 xml:space="preserve">
<g>
	<g>
		<g>
			<g>
				<g>
					<path fill="#FFFFFF" d="M1.84,63.607V50.21h4.72v13.397c0,1.099,0.55,1.535,1.318,1.535c0.879,0,1.426-0.549,1.426-1.535V1.785
						h4.723v61.822c0,3.513-2.745,6.148-6.148,6.148C4.366,69.757,1.84,67.12,1.84,63.607z"/>
					<path fill="#FFFFFF" d="M28.405,1.785h4.833v61.604c0,3.516-2.854,6.368-6.259,6.368c-3.515,0-6.369-2.854-6.369-6.368V1.785
						h4.611v61.604c0,0.877,0.77,1.646,1.758,1.646c0.879,0,1.426-0.877,1.426-1.646V1.785z"/>
					<path fill="#FFFFFF" d="M75.569,1.785h4.832v61.604c0,3.516-2.854,6.368-6.258,6.368c-3.517,0-6.371-2.854-6.371-6.368V1.785
						h4.612v61.604c0,0.877,0.769,1.646,1.759,1.646c0.875,0,1.426-0.877,1.426-1.646V1.785z"/>
					<path fill="#FFFFFF" d="M95.308,41.097c1.646,4.064,3.622,8.458,3.514,13.943v7.578c0,4.063-2.525,7.139-6.369,7.139
						c-3.625,0-6.369-3.073-6.369-7.026V49.439h4.83v13.947c0,0.771,0.551,1.646,1.539,1.646c0.877,0,1.647-0.77,1.647-1.646V55.04
						c0-3.845-1.429-7.795-2.856-11.308l-1.207-2.964c-0.109-0.113-0.219-0.329-0.219-0.441c-1.867-4.279-3.734-8.673-3.734-13.834
						V8.267c0-3.624,2.416-6.811,6.26-6.811c3.515,0,6.039,2.638,6.039,6.148v13.398h-4.721V7.604c0-1.098-0.551-1.428-1.318-1.428
						c-0.879,0-1.43,0.441-1.43,1.428v18.889c0,4.392,1.539,8.455,3.625,12.736L95.308,41.097z"/>
				</g>
			</g>
		</g>
	</g>
	<g>
		<g>
			<g>
				<rect x="57.669" y="43.234" fill="#FFFFFF" width="5.234" height="5.736"/>
				<rect x="57.669" y="53.958" fill="#FFFFFF" width="5.234" height="14.959"/>
			</g>
		</g>
		<polygon fill="#F08E22" points="57.705,1.36 44.945,1.36 39.692,1.36 39.692,6.614 39.692,63.663 39.692,68.917 44.945,68.917 
			55.453,68.917 55.453,63.663 44.945,63.663 44.945,6.614 57.705,6.614 57.705,41.144 62.958,41.144 62.958,6.614 62.958,1.36 		
			"/>
	</g>
</g>
</svg>
